<?xml version="1.0" encoding="UTF-8"?>
<!DOCTYPE svg PUBLIC "-//W3C//DTD SVG 1.1//EN" "http://www.w3.org/Graphics/SVG/1.1/DTD/svg11.dtd">
<!-- Creator: CorelDRAW 2020 (64-Bit) -->
<svg xmlns="http://www.w3.org/2000/svg" xml:space="preserve" width="37.3137mm" height="22.9879mm" version="1.1" style="shape-rendering:geometricPrecision; text-rendering:geometricPrecision; image-rendering:optimizeQuality; fill-rule:evenodd; clip-rule:evenodd"
viewBox="0 0 782.57 482.12"
 xmlns:xlink="http://www.w3.org/1999/xlink"
 xmlns:xodm="http://www.corel.com/coreldraw/odm/2003">
 <defs>
  <style type="text/css">
   <![CDATA[
    .fil0 {fill:#FEFEFE}
   ]]>
  </style>
 </defs>
 <g id="A4_x0020_-_x0020_In">
  <metadata id="CorelCorpID_0Corel-Layer"/>
  <g id="_1841074571488">
   <path class="fil0" d="M483.43 358.29c-8.36,1.08 -33.92,3.57 -48.7,3l0.02 -95.66 96.31 -0.26 0 -184.64c-12.84,-1.8 -40.97,-5.34 -57.6,-6.56 -89.35,-6.57 -200.43,5.1 -282.62,41.02 -44.23,19.33 -97.28,51.76 -112.74,100.99 -5.88,18.75 -7.42,38.38 -0.26,48.87l224.62 0.34 -0.14 84.28c-17.08,-0.1 -70.65,-17.51 -88.31,-25.45 -26.94,-12.11 -47.79,-24.77 -66.86,-46.85l-64.24 0.1c9.61,38.28 78.55,77.68 113.1,91.52 49.3,19.74 112.79,34.74 166.49,38.21l0 -189.99 -222.08 0.04c7.78,-31.74 68.61,-57.28 96.32,-68.23 35.31,-13.95 100.65,-25.28 137.93,-26.79l-0.1 284.92c27.04,4.3 113.79,-0.72 139.25,-3.83 39.59,-4.83 82.66,-14.57 120.06,-28.44 64.95,-24.09 153.42,-75.08 133.99,-157.68l-164.56 0.04 0 -69.6c30.06,7.78 74.28,31.09 94.88,57.63l64.33 -0.1c-7.27,-30.75 -61.59,-67.67 -88.71,-81.21 -30.07,-15 -98.46,-38.84 -130.65,-40.56l-0.02 181.97 161.96 0c-26.94,64.03 -158.13,84.68 -221.66,92.9zm-48.51 -237.74l35.92 1.69 0.03 95.03 -36.15 0.08 0.2 -96.79z"/>
   <path class="fil0" d="M0.54 227.28c-0.96,12.34 -0.53,24.46 0.46,32.45 19.56,157.15 255.05,210.52 382.68,221.16l0.25 -38.48 14.68 13.34 23.77 -21.8 25.75 0c8.29,-0.09 17.38,-0.8 17.09,6.31 -0.15,3.68 -3.41,6.19 -9.89,5.74l-8.48 0.08 -0.08 11.97 8.76 0.09c4.43,0.05 8.46,1.75 8.45,5.84 -0.01,4.74 -5.14,5.99 -11.55,6.02l-17.69 0.09 0 -24.07 -9.61 -0 -14.48 13.38 -0 22.73 64.22 0c8.96,-6.04 10.65,-21.17 3.8,-30.07 2.05,-3.33 3.83,-9.21 3.69,-13.67 -0.56,-17.48 -18.4,-20.37 -32.38,-20.44 -11.86,-0.06 -23.73,0 -35.59,0l-15.78 14.9 -13.78 -14.9 -22.31 0 0.01 25.43c-58.08,-8.68 -103.43,-13.7 -159.52,-34.56 -42.45,-15.79 -89.36,-40.03 -121.19,-72.79 -89.57,-92.18 -31.73,-183.28 62.73,-236.39 93.24,-52.42 218.18,-68 323.37,-61.4 109.31,6.87 201.04,32.14 287.98,100.17l26.68 -21.51c-5,-7.02 -25.89,-21.68 -33.82,-27.73 -3.37,-2.57 -8.58,-5.55 -13.03,-7.54 -13.02,-0.21 -32.06,1.37 -42.78,1.86 -6.21,-7.84 -27.67,-39.21 -34.55,-41.74 -79.96,-29.38 -164.67,-41.16 -249.86,-41.71 -140.95,-0.92 -395.19,63.62 -407.99,227.26z"/>
  </g>
 </g>
</svg>
